<svg xmlns="http://www.w3.org/2000/svg" width="1254" height="836" viewBox="0 0 1254 836">
<g>
<path d="M 400.07 469.45 C395.08,472.00 391.71,472.13 387.33,469.95 C380.84,466.71 379.16,462.02 381.58,453.85 C381.90,452.77 380.95,451.51 378.78,450.17 C373.88,447.14 372.00,443.21 372.00,436.03 C372.00,430.96 372.45,429.27 374.56,426.51 C376.49,423.98 376.89,422.71 376.17,421.33 C373.13,415.42 372.31,412.50 371.43,404.50 C371.07,401.20 370.50,398.05 370.17,397.50 C369.42,396.28 369.45,396.39 367.17,386.26 C366.15,381.73 365.53,377.80 365.80,377.53 C366.07,377.27 365.81,376.47 365.23,375.77 C364.32,374.68 362.32,365.92 361.51,359.50 C361.37,358.40 361.16,357.50 361.05,357.50 C360.94,357.50 360.65,356.38 360.41,355.00 C360.10,353.20 359.91,352.04 359.25,351.30 C358.09,350.00 355.47,349.99 348.08,349.99 L 347.78 349.98 C336.15,349.97 334.37,349.57 334.52,347.00 C334.82,342.18 335.41,342.00 350.57,342.00 C351.37,342.00 352.12,342.00 352.83,342.00 C360.66,341.99 363.86,341.98 365.49,343.58 C366.76,344.82 367.09,347.04 367.92,351.00 C368.55,354.02 369.52,358.19 370.07,360.25 L 371.08 364.00 L 428.90 364.00 C485.89,364.00 486.77,364.03 489.37,366.07 C492.76,368.74 492.81,372.74 489.59,384.04 C488.27,388.69 485.76,398.62 484.02,406.09 C481.72,415.97 480.21,420.37 478.52,422.20 L 476.18 424.72 L 431.34 424.90 L 386.50 425.08 L 384.14 427.42 C380.71,430.82 380.04,438.04 382.88,440.88 C384.98,442.98 385.47,443.00 431.80,443.00 L 432.36 443.00 C472.71,443.00 479.59,443.00 480.76,445.58 C481.00,446.12 481.00,446.75 481.00,447.53 L 481.00 447.58 C481.00,450.03 479.46,451.60 476.50,452.17 C474.91,452.47 474.49,453.37 474.43,456.52 C474.31,463.90 474.01,464.92 471.10,467.90 C467.09,472.00 462.37,472.74 457.16,470.08 C454.91,468.93 452.54,467.01 451.90,465.81 C450.80,463.75 450.35,456.28 451.14,453.00 C451.45,451.71 448.51,451.46 430.00,451.22 C418.17,451.06 407.55,451.17 406.38,451.45 C404.44,451.93 404.36,452.29 405.32,455.91 C406.19,459.17 406.05,460.56 404.50,463.99 C403.48,466.27 401.48,468.73 400.07,469.45 ZM 721.80 440.80 C720.18,442.42 711.08,442.37 710.45,440.74 C710.19,440.05 710.09,424.41 710.24,405.99 L 710.50 372.50 L 726.50 372.02 L 728.68 376.76 C731.12,382.04 745.24,411.30 745.61,411.84 C745.74,412.03 746.67,411.71 747.67,411.12 C748.68,410.54 749.13,410.05 748.68,410.03 C748.22,410.01 749.24,407.58 750.93,404.63 C752.62,401.67 754.00,398.56 754.00,397.70 C754.00,396.84 754.71,395.44 755.57,394.57 C756.44,393.71 756.85,393.00 756.50,393.00 C756.15,393.00 756.57,392.29 757.44,391.42 C758.31,390.55 758.76,389.43 758.45,388.92 C758.14,388.41 758.39,388.00 759.00,388.00 C759.61,388.00 759.84,387.55 759.50,387.00 C759.16,386.45 759.39,386.00 760.00,386.00 C760.61,386.00 760.84,385.55 760.50,385.00 C760.16,384.45 760.36,384.00 760.94,384.00 C761.52,384.00 761.89,383.65 761.75,383.23 C761.35,381.99 765.21,374.00 766.21,374.00 C766.71,374.00 766.84,373.55 766.50,373.00 C766.11,372.36 768.99,372.00 774.44,372.00 L 783.00 372.00 L 783.00 442.10 L 776.75 441.80 L 770.50 441.50 L 770.23 417.75 C770.08,404.69 769.60,394.00 769.15,394.00 C768.70,394.00 764.58,401.88 760.00,411.50 L 751.67 429.00 L 746.40 429.00 C742.01,429.00 741.03,428.67 740.50,427.00 C740.15,425.90 739.42,425.00 738.87,425.00 C738.33,425.00 738.16,424.55 738.50,424.00 C738.84,423.45 738.65,423.00 738.08,423.00 C737.51,423.00 736.74,421.76 736.38,420.25 C736.02,418.74 733.25,412.77 730.22,407.00 C727.18,401.23 724.77,396.39 724.85,396.25 C725.37,395.39 724.84,394.00 724.00,394.00 C723.36,394.00 723.00,402.27 723.00,416.80 C723.00,433.20 722.66,439.94 721.80,440.80 ZM 821.41 441.25 C816.94,443.50 806.32,443.40 801.27,441.07 C795.54,438.42 793.13,434.25 793.42,427.49 C793.55,424.57 794.37,421.09 795.24,419.75 C798.71,414.47 813.85,409.69 823.75,410.75 C826.09,411.00 828.06,410.83 828.13,410.36 C828.85,405.52 828.53,404.28 825.89,401.75 C821.92,397.95 814.11,397.80 810.45,401.45 C809.10,402.80 808.00,404.38 808.00,404.95 C808.00,405.56 805.54,406.00 802.11,406.00 L 796.22 406.00 L 796.58 402.28 C797.05,397.38 799.63,394.01 805.06,391.20 C808.99,389.15 810.66,388.93 819.58,389.20 C828.56,389.47 830.10,389.79 833.71,392.18 C841.04,397.04 842.00,400.60 842.00,422.82 L 842.00 442.00 L 837.58 442.00 C831.62,442.00 830.00,441.23 830.00,438.39 C830.00,435.51 829.05,435.38 826.34,437.89 C825.23,438.94 823.00,440.45 821.41,441.25 ZM 567.74 440.49 C563.97,442.27 561.15,442.75 554.24,442.78 C549.43,442.81 543.59,442.39 541.25,441.86 C536.12,440.68 525.19,433.50 523.05,429.90 C522.20,428.47 520.74,426.22 519.81,424.90 C516.27,419.89 513.64,402.34 516.00,399.50 C516.64,398.72 516.90,397.65 516.57,397.11 C516.24,396.58 516.43,395.85 517.00,395.50 C517.57,395.15 517.79,394.47 517.50,394.00 C517.21,393.53 517.43,392.85 518.00,392.50 C518.57,392.15 518.77,391.44 518.46,390.93 C518.14,390.42 518.39,390.00 519.00,390.00 C519.61,390.00 519.84,389.55 519.50,389.00 C519.16,388.45 519.36,388.00 519.94,388.00 C520.52,388.00 521.00,387.43 521.00,386.73 C521.00,384.83 526.93,378.00 528.57,378.00 C529.36,378.00 530.00,377.60 530.00,377.11 C530.00,376.62 531.12,375.93 532.50,375.59 C533.88,375.24 535.00,374.54 535.00,374.02 C535.00,371.21 561.13,369.40 567.00,371.81 C570.41,373.20 575.54,377.15 577.99,380.26 C579.94,382.74 579.83,386.00 577.80,386.00 C577.25,386.00 575.47,386.96 573.83,388.12 L 570.85 390.24 L 567.67 387.17 C560.71,380.44 551.18,379.15 542.14,383.72 C535.96,386.85 532.95,390.43 530.63,397.43 C526.15,410.93 531.23,424.57 542.50,429.32 C545.25,430.47 547.65,431.78 547.83,432.21 C548.29,433.30 556.75,433.21 557.43,432.11 C557.73,431.62 559.22,430.92 560.74,430.55 C562.26,430.18 565.20,428.52 567.27,426.88 C571.44,423.55 572.92,423.66 577.39,427.60 L 580.27 430.14 L 576.39 434.19 C574.25,436.42 570.36,439.25 567.74,440.49 ZM 676.21 457.00 C674.53,460.44 674.38,460.51 667.65,460.80 C663.88,460.96 660.97,460.74 661.18,460.30 C661.38,459.86 662.39,457.70 663.41,455.50 C664.43,453.30 666.36,449.19 667.70,446.36 C669.97,441.56 670.03,441.00 668.65,437.70 C667.83,435.75 667.43,433.90 667.75,433.58 C668.07,433.26 667.86,433.00 667.28,433.00 C666.37,433.00 665.88,431.87 664.78,427.25 C664.69,426.84 663.37,424.05 661.86,421.06 C660.35,418.07 659.34,415.25 659.62,414.81 C659.89,414.36 659.64,414.00 659.06,414.00 C658.48,414.00 658.07,413.66 658.16,413.25 C658.24,412.84 657.61,410.93 656.75,409.01 C655.88,407.09 655.39,405.18 655.65,404.76 C655.91,404.34 655.57,404.00 654.89,404.00 C654.22,404.00 653.94,403.73 654.27,403.40 C654.60,403.07 653.97,401.09 652.88,399.00 C651.80,396.91 650.69,394.01 650.42,392.56 L 649.94 389.91 L 656.68 390.20 L 663.42 390.50 L 665.72 397.00 C666.98,400.58 668.95,406.20 670.10,409.50 C671.24,412.80 672.54,415.95 672.98,416.50 C673.41,417.05 674.08,418.96 674.46,420.74 C675.39,425.10 676.79,425.72 678.03,422.31 C678.60,420.76 679.34,418.83 679.69,418.00 C680.04,417.17 680.42,416.16 680.54,415.75 C680.65,415.34 680.86,414.77 681.00,414.50 C681.14,414.23 681.33,413.66 681.42,413.25 C681.97,410.76 684.40,404.33 685.12,403.41 C685.60,402.81 685.69,402.02 685.32,401.66 C684.96,401.30 685.10,401.00 685.62,401.00 C686.15,401.00 686.64,400.21 686.71,399.25 C686.79,398.29 687.40,396.15 688.09,394.50 C688.77,392.85 689.25,391.16 689.16,390.75 C689.07,390.34 692.35,390.00 696.46,390.00 L 703.91 390.00 L 701.53 396.25 C699.27,402.20 692.32,419.10 689.50,425.50 C688.77,427.15 686.96,431.65 685.48,435.50 C682.61,442.93 679.03,451.24 676.21,457.00 ZM 920.86 441.58 C920.24,441.97 916.75,442.48 913.11,442.71 C905.65,443.18 901.06,441.44 897.70,436.85 C895.94,434.45 895.78,432.60 895.92,417.17 L 896.09 400.14 L 891.54 399.45 L 887.00 398.77 L 887.00 390.11 L 895.50 389.50 L 896.10 380.17 L 902.01 379.84 L 907.92 379.50 L 908.21 384.50 L 908.50 389.50 L 922.00 390.09 L 922.00 394.80 L 922.00 399.50 L 908.50 399.50 L 908.19 410.50 C907.80,424.76 908.55,430.07 911.08,430.73 C912.14,431.01 913.00,431.63 913.00,432.12 C913.00,433.34 918.74,433.23 919.50,432.00 C919.84,431.45 920.54,431.00 921.06,431.00 C922.41,431.00 922.23,440.74 920.86,441.58 ZM 642.75 442.37 C638.80,443.43 630.60,442.97 627.50,441.51 C619.53,437.77 618.93,435.98 618.33,414.25 L 617.90 399.00 L 614.45 399.00 C611.03,399.00 611.00,398.96 611.00,394.50 C611.00,390.02 611.02,390.00 614.50,390.00 L 618.00 390.00 L 618.00 384.39 C618.00,379.69 618.26,378.88 619.58,379.39 C620.45,379.73 623.38,380.00 626.08,380.00 L 631.00 380.00 L 631.00 390.00 L 645.00 390.00 L 645.00 399.50 L 631.00 398.84 L 631.00 411.95 C631.00,424.99 632.59,432.99 634.91,431.56 C635.43,431.23 636.13,431.41 636.46,431.94 C636.79,432.47 637.61,432.74 638.28,432.54 C644.90,430.51 645.00,430.57 645.00,436.36 C645.00,441.12 644.73,441.84 642.75,442.37 ZM 865.10 426.50 L 864.50 441.50 L 859.50 441.69 C856.75,441.80 853.94,441.65 853.25,441.36 C852.30,440.96 852.00,434.80 852.00,415.42 L 852.00 390.00 L 865.00 390.00 L 865.00 393.47 C865.00,396.14 865.34,396.81 866.50,396.36 C867.33,396.05 868.00,395.15 868.00,394.38 C868.00,392.19 874.09,389.01 878.30,389.00 L 882.10 389.00 L 881.80 394.64 L 881.50 400.29 L 876.81 401.47 C867.33,403.87 865.88,406.96 865.10,426.50 ZM 602.00 390.00 L 602.00 441.66 L 596.59 441.88 C593.04,442.02 590.89,441.65 590.35,440.80 C589.45,439.38 588.83,397.19 589.65,392.75 C590.14,390.12 590.41,390.00 596.08,390.00 ZM 415.52 387.75 C416.03,389.96 416.32,390.00 430.45,390.00 C431.92,390.00 433.24,390.01 434.44,390.02 C440.36,390.07 443.18,390.09 444.71,388.69 C446.42,387.13 446.51,383.80 447.47,376.75 L 448.12 372.00 L 431.12 372.00 C421.77,372.00 413.91,372.34 413.66,372.75 C413.24,373.46 414.40,382.83 415.52,387.75 ZM 375.10 383.25 L 376.46 390.00 L 407.09 390.00 L 406.91 385.25 C406.81,382.64 406.24,378.58 405.65,376.23 L 404.57 371.95 L 389.04 372.23 C387.48,372.25 386.07,372.27 384.80,372.28 C378.08,372.36 375.12,372.40 374.12,373.81 C373.33,374.93 373.76,376.90 374.51,380.43 C374.69,381.27 374.89,382.21 375.10,383.25 ZM 383.26 415.18 C383.94,415.61 390.19,415.98 397.13,415.98 C409.37,416.00 409.79,415.93 410.35,413.77 C410.67,412.54 410.50,411.10 409.97,410.57 C409.44,410.04 409.00,408.40 409.00,406.92 C409.00,405.45 408.72,402.84 408.38,401.12 L 407.75 398.00 L 393.84 398.00 C382.17,398.00 379.84,398.25 379.34,399.56 C378.54,401.64 381.69,414.18 383.26,415.18 ZM 454.66 382.25 L 453.24 390.00 L 466.00 390.00 C478.36,390.00 478.79,389.93 479.49,387.75 C479.89,386.51 480.15,385.12 480.07,384.64 C479.99,384.17 480.33,383.27 480.83,382.64 C481.32,382.02 482.01,379.63 482.36,377.36 C483.16,372.09 482.93,372.00 468.39,372.00 C460.12,372.00 456.82,372.35 456.51,373.25 C456.27,373.94 455.44,377.99 454.66,382.25 ZM 417.98 414.78 C418.00,415.77 420.72,416.00 429.75,415.78 L 441.50 415.50 L 442.56 407.28 C443.47,400.23 443.41,398.99 442.12,398.49 C441.29,398.17 435.33,397.98 428.87,398.07 C420.24,398.18 417.00,398.56 416.63,399.52 C416.35,400.24 416.54,403.68 417.04,407.17 C417.55,410.65 417.97,414.08 417.98,414.78 ZM 449.41 414.37 C448.82,415.92 449.80,416.04 460.63,415.78 L 472.50 415.50 L 474.00 409.32 C474.83,405.92 475.82,402.83 476.21,402.44 C476.61,402.05 476.48,400.90 475.93,399.87 C475.05,398.22 473.65,398.00 464.09,398.00 C456.61,398.00 452.94,398.39 452.26,399.25 C451.72,399.94 451.00,403.24 450.67,406.58 C450.34,409.93 449.77,413.43 449.41,414.37 ZM 808.24 431.75 C808.82,432.46 811.49,433.00 814.48,433.00 C819.14,433.00 823.98,430.99 827.88,427.42 C828.08,427.24 828.46,425.26 828.72,423.04 L 829.19 419.00 L 823.84 419.02 C815.70,419.05 808.73,421.17 807.27,424.06 C806.03,426.52 806.40,429.45 808.24,431.75 ZM 599.96 379.02 C597.02,380.60 593.15,380.15 591.00,378.00 C588.65,375.65 588.31,369.82 590.42,368.07 C593.85,365.22 602.42,367.00 603.23,370.74 C603.82,373.39 602.03,377.91 599.96,379.02 ZM 459.22 462.44 C462.07,464.44 463.25,464.40 465.63,462.25 C469.01,459.19 467.06,453.00 462.71,453.00 C457.56,453.00 455.14,459.58 459.22,462.44 ZM 388.99 461.47 C391.46,466.10 397.88,463.90 397.97,458.40 C398.01,455.59 394.71,452.76 391.85,453.17 C388.69,453.62 387.16,458.06 388.99,461.47 Z" fill="rgb(32,70,57)"/>
<path d="M 0.00 418.00 L 0.00 0.00 L 627.00 0.00 L 1254.00 0.00 L 1254.00 418.00 L 1254.00 836.00 L 627.00 836.00 L 0.00 836.00 L 0.00 418.00 ZM 400.07 469.45 C401.48,468.73 403.48,466.27 404.50,463.99 C406.05,460.56 406.19,459.17 405.32,455.91 C404.36,452.29 404.44,451.93 406.38,451.45 C407.55,451.17 418.17,451.06 430.00,451.22 C448.51,451.46 451.45,451.71 451.14,453.00 C450.35,456.28 450.80,463.75 451.90,465.81 C452.54,467.01 454.91,468.93 457.16,470.08 C462.37,472.74 467.09,472.00 471.10,467.90 C474.01,464.92 474.31,463.90 474.43,456.52 C474.49,453.37 474.91,452.47 476.50,452.17 C479.46,451.60 481.00,450.03 481.00,447.58 C481.00,442.98 481.19,443.00 431.80,443.00 C385.47,443.00 384.98,442.98 382.88,440.88 C380.04,438.04 380.71,430.82 384.14,427.42 L 386.50 425.08 L 431.34 424.90 L 476.18 424.72 L 478.52 422.20 C480.21,420.37 481.72,415.97 484.02,406.09 C485.76,398.62 488.27,388.69 489.59,384.04 C492.81,372.74 492.76,368.74 489.37,366.07 C486.77,364.03 485.89,364.00 428.90,364.00 L 371.08 364.00 L 370.07 360.25 C369.52,358.19 368.55,354.02 367.92,351.00 C365.92,341.52 366.86,342.00 350.57,342.00 C335.41,342.00 334.82,342.18 334.52,347.00 C334.37,349.57 336.15,349.97 347.78,349.98 C359.64,350.00 359.53,349.96 360.41,355.00 C360.65,356.38 360.94,357.50 361.05,357.50 C361.16,357.50 361.37,358.40 361.51,359.50 C362.32,365.92 364.32,374.68 365.23,375.77 C365.81,376.47 366.07,377.27 365.80,377.53 C365.53,377.80 366.15,381.73 367.17,386.26 C369.45,396.39 369.42,396.28 370.17,397.50 C370.50,398.05 371.07,401.20 371.43,404.50 C372.31,412.50 373.13,415.42 376.17,421.33 C376.89,422.71 376.49,423.98 374.56,426.51 C372.45,429.27 372.00,430.96 372.00,436.03 C372.00,443.21 373.88,447.14 378.78,450.17 C380.95,451.51 381.90,452.77 381.58,453.85 C379.16,462.02 380.84,466.71 387.33,469.95 C391.71,472.13 395.08,472.00 400.07,469.45 ZM 676.21 457.00 C679.03,451.24 682.61,442.93 685.48,435.50 C686.96,431.65 688.77,427.15 689.50,425.50 C692.32,419.10 699.27,402.20 701.53,396.25 L 703.91 390.00 L 696.46 390.00 C692.35,390.00 689.07,390.34 689.16,390.75 C689.25,391.16 688.77,392.85 688.09,394.50 C687.40,396.15 686.79,398.29 686.71,399.25 C686.64,400.21 686.15,401.00 685.62,401.00 C685.10,401.00 684.96,401.30 685.32,401.66 C685.69,402.02 685.60,402.81 685.12,403.41 C684.40,404.33 681.97,410.76 681.42,413.25 C681.33,413.66 681.14,414.23 681.00,414.50 C680.86,414.77 680.65,415.34 680.54,415.75 C680.42,416.16 680.04,417.17 679.69,418.00 C679.34,418.83 678.60,420.76 678.03,422.31 C676.79,425.72 675.39,425.10 674.46,420.74 C674.08,418.96 673.41,417.05 672.98,416.50 C672.54,415.95 671.24,412.80 670.10,409.50 C668.95,406.20 666.98,400.58 665.72,397.00 L 663.42 390.50 L 656.68 390.20 L 649.94 389.91 L 650.42 392.56 C650.69,394.01 651.80,396.91 652.88,399.00 C653.97,401.09 654.60,403.07 654.27,403.40 C653.94,403.73 654.22,404.00 654.89,404.00 C655.57,404.00 655.91,404.34 655.65,404.76 C655.39,405.18 655.88,407.09 656.75,409.01 C657.61,410.93 658.24,412.84 658.16,413.25 C658.07,413.66 658.48,414.00 659.06,414.00 C659.64,414.00 659.89,414.36 659.62,414.81 C659.34,415.25 660.35,418.07 661.86,421.06 C663.37,424.05 664.69,426.84 664.78,427.25 C665.88,431.87 666.37,433.00 667.28,433.00 C667.86,433.00 668.07,433.26 667.75,433.58 C667.43,433.90 667.83,435.75 668.65,437.70 C670.03,441.00 669.97,441.56 667.70,446.36 C666.36,449.19 664.43,453.30 663.41,455.50 C662.39,457.70 661.38,459.86 661.18,460.30 C660.97,460.74 663.88,460.96 667.65,460.80 C674.38,460.51 674.53,460.44 676.21,457.00 ZM 567.74 440.49 C570.36,439.25 574.25,436.42 576.39,434.19 L 580.27 430.14 L 577.39 427.60 C572.92,423.66 571.44,423.55 567.27,426.88 C565.20,428.52 562.26,430.18 560.74,430.55 C559.22,430.92 557.73,431.62 557.43,432.11 C556.75,433.21 548.29,433.30 547.83,432.21 C547.65,431.78 545.25,430.47 542.50,429.32 C531.23,424.57 526.15,410.93 530.63,397.43 C532.95,390.43 535.96,386.85 542.14,383.72 C551.18,379.15 560.71,380.44 567.67,387.17 L 570.85 390.24 L 573.83 388.12 C575.47,386.96 577.25,386.00 577.80,386.00 C579.83,386.00 579.94,382.74 577.99,380.26 C575.54,377.15 570.41,373.20 567.00,371.81 C561.13,369.40 535.00,371.21 535.00,374.02 C535.00,374.54 533.88,375.24 532.50,375.59 C531.12,375.93 530.00,376.62 530.00,377.11 C530.00,377.60 529.36,378.00 528.57,378.00 C526.93,378.00 521.00,384.83 521.00,386.73 C521.00,387.43 520.52,388.00 519.94,388.00 C519.36,388.00 519.16,388.45 519.50,389.00 C519.84,389.55 519.61,390.00 519.00,390.00 C518.39,390.00 518.14,390.42 518.46,390.93 C518.77,391.44 518.57,392.15 518.00,392.50 C517.43,392.85 517.21,393.53 517.50,394.00 C517.79,394.47 517.57,395.15 517.00,395.50 C516.43,395.85 516.24,396.58 516.57,397.11 C516.90,397.65 516.64,398.72 516.00,399.50 C513.64,402.34 516.27,419.89 519.81,424.90 C520.74,426.22 522.20,428.47 523.05,429.90 C525.19,433.50 536.12,440.68 541.25,441.86 C543.59,442.39 549.43,442.81 554.24,442.78 C561.15,442.75 563.97,442.27 567.74,440.49 ZM 642.75 442.37 C644.73,441.84 645.00,441.12 645.00,436.36 C645.00,430.57 644.90,430.51 638.28,432.54 C637.61,432.74 636.79,432.47 636.46,431.94 C636.13,431.41 635.43,431.23 634.91,431.56 C632.59,432.99 631.00,424.99 631.00,411.95 L 631.00 398.84 L 638.00 399.17 L 645.00 399.50 L 645.00 394.75 L 645.00 390.00 L 638.00 390.00 L 631.00 390.00 L 631.00 385.00 L 631.00 380.00 L 626.08 380.00 C623.38,380.00 620.45,379.73 619.58,379.39 C618.26,378.88 618.00,379.69 618.00,384.39 L 618.00 390.00 L 614.50 390.00 C611.02,390.00 611.00,390.02 611.00,394.50 C611.00,398.96 611.03,399.00 614.45,399.00 L 617.90 399.00 L 618.33 414.25 C618.93,435.98 619.53,437.77 627.50,441.51 C630.60,442.97 638.80,443.43 642.75,442.37 ZM 821.41 441.25 C823.00,440.45 825.23,438.94 826.34,437.89 C829.05,435.38 830.00,435.51 830.00,438.39 C830.00,441.23 831.62,442.00 837.58,442.00 L 842.00 442.00 L 842.00 422.82 C842.00,400.60 841.04,397.04 833.71,392.18 C830.10,389.79 828.56,389.47 819.58,389.20 C810.66,388.93 808.99,389.15 805.06,391.20 C799.63,394.01 797.05,397.38 796.58,402.28 L 796.22 406.00 L 802.11 406.00 C805.54,406.00 808.00,405.56 808.00,404.95 C808.00,404.38 809.10,402.80 810.45,401.45 C814.11,397.80 821.92,397.95 825.89,401.75 C828.53,404.28 828.85,405.52 828.13,410.36 C828.06,410.83 826.09,411.00 823.75,410.75 C813.85,409.69 798.71,414.47 795.24,419.75 C794.37,421.09 793.55,424.57 793.42,427.49 C793.13,434.25 795.54,438.42 801.27,441.07 C806.32,443.40 816.94,443.50 821.41,441.25 ZM 920.86 441.58 C922.23,440.74 922.41,431.00 921.06,431.00 C920.54,431.00 919.84,431.45 919.50,432.00 C918.74,433.23 913.00,433.34 913.00,432.12 C913.00,431.63 912.14,431.01 911.08,430.73 C908.55,430.07 907.80,424.76 908.19,410.50 L 908.50 399.50 L 915.25 399.50 L 922.00 399.50 L 922.00 394.80 L 922.00 390.09 L 915.25 389.80 L 908.50 389.50 L 908.21 384.50 L 907.92 379.50 L 902.01 379.84 L 896.10 380.17 L 895.80 384.84 L 895.50 389.50 L 891.25 389.81 L 887.00 390.11 L 887.00 394.44 L 887.00 398.77 L 891.54 399.45 L 896.09 400.14 L 895.92 417.17 C895.78,432.60 895.94,434.45 897.70,436.85 C901.06,441.44 905.65,443.18 913.11,442.71 C916.75,442.48 920.24,441.97 920.86,441.58 ZM 602.00 415.83 L 602.00 390.00 L 596.08 390.00 C590.41,390.00 590.14,390.12 589.65,392.75 C588.83,397.19 589.45,439.38 590.35,440.80 C590.89,441.65 593.04,442.02 596.59,441.88 L 602.00 441.66 L 602.00 415.83 ZM 721.80 440.80 C722.66,439.94 723.00,433.20 723.00,416.80 C723.00,402.27 723.36,394.00 724.00,394.00 C724.84,394.00 725.37,395.39 724.85,396.25 C724.77,396.39 727.18,401.23 730.22,407.00 C733.25,412.77 736.02,418.74 736.38,420.25 C736.74,421.76 737.51,423.00 738.08,423.00 C738.65,423.00 738.84,423.45 738.50,424.00 C738.16,424.55 738.33,425.00 738.87,425.00 C739.42,425.00 740.15,425.90 740.50,427.00 C741.03,428.67 742.01,429.00 746.40,429.00 L 751.67 429.00 L 760.00 411.50 C764.58,401.88 768.70,394.00 769.15,394.00 C769.60,394.00 770.08,404.69 770.23,417.75 L 770.50 441.50 L 776.75 441.80 L 783.00 442.10 L 783.00 407.05 L 783.00 372.00 L 774.44 372.00 C768.99,372.00 766.11,372.36 766.50,373.00 C766.84,373.55 766.71,374.00 766.21,374.00 C765.21,374.00 761.35,381.99 761.75,383.23 C761.89,383.65 761.52,384.00 760.94,384.00 C760.36,384.00 760.16,384.45 760.50,385.00 C760.84,385.55 760.61,386.00 760.00,386.00 C759.39,386.00 759.16,386.45 759.50,387.00 C759.84,387.55 759.61,388.00 759.00,388.00 C758.39,388.00 758.14,388.41 758.45,388.92 C758.76,389.43 758.31,390.55 757.44,391.42 C756.57,392.29 756.15,393.00 756.50,393.00 C756.85,393.00 756.44,393.71 755.57,394.57 C754.71,395.44 754.00,396.84 754.00,397.70 C754.00,398.56 752.62,401.67 750.93,404.63 C749.24,407.58 748.22,410.01 748.68,410.03 C749.13,410.05 748.68,410.54 747.67,411.12 C746.67,411.71 745.74,412.03 745.61,411.84 C745.24,411.30 731.12,382.04 728.68,376.76 L 726.50 372.02 L 718.50 372.26 L 710.50 372.50 L 710.24 405.99 C710.09,424.41 710.19,440.05 710.45,440.74 C711.08,442.37 720.18,442.42 721.80,440.80 ZM 865.10 426.50 C865.88,406.96 867.33,403.87 876.81,401.47 L 881.50 400.29 L 881.80 394.64 L 882.10 389.00 L 878.30 389.00 C874.09,389.01 868.00,392.19 868.00,394.38 C868.00,395.15 867.33,396.05 866.50,396.36 C865.34,396.81 865.00,396.14 865.00,393.47 L 865.00 390.00 L 858.50 390.00 L 852.00 390.00 L 852.00 415.42 C852.00,434.80 852.30,440.96 853.25,441.36 C853.94,441.65 856.75,441.80 859.50,441.69 L 864.50 441.50 L 865.10 426.50 ZM 599.96 379.02 C602.03,377.91 603.82,373.39 603.23,370.74 C602.42,367.00 593.85,365.22 590.42,368.07 C588.31,369.82 588.65,375.65 591.00,378.00 C593.15,380.15 597.02,380.60 599.96,379.02 ZM 388.99 461.47 C387.16,458.06 388.69,453.62 391.85,453.17 C394.71,452.76 398.01,455.59 397.97,458.40 C397.88,463.90 391.46,466.10 388.99,461.47 ZM 459.22 462.44 C455.14,459.58 457.56,453.00 462.71,453.00 C467.06,453.00 469.01,459.19 465.63,462.25 C463.25,464.40 462.07,464.44 459.22,462.44 ZM 383.26 415.18 C381.69,414.18 378.54,401.64 379.34,399.56 C379.84,398.25 382.17,398.00 393.84,398.00 L 407.75 398.00 L 408.38 401.12 C408.72,402.84 409.00,405.45 409.00,406.92 C409.00,408.40 409.44,410.04 409.97,410.57 C410.50,411.10 410.67,412.54 410.35,413.77 C409.79,415.93 409.37,416.00 397.13,415.98 C390.19,415.98 383.94,415.61 383.26,415.18 ZM 417.98 414.78 C417.97,414.08 417.55,410.65 417.04,407.17 C416.54,403.68 416.35,400.24 416.63,399.52 C417.00,398.56 420.24,398.18 428.87,398.07 C435.33,397.98 441.29,398.17 442.12,398.49 C443.41,398.99 443.47,400.23 442.56,407.28 L 441.50 415.50 L 429.75 415.78 C420.72,416.00 418.00,415.77 417.98,414.78 ZM 449.41 414.37 C449.77,413.43 450.34,409.93 450.67,406.58 C451.00,403.24 451.72,399.94 452.26,399.25 C452.94,398.39 456.61,398.00 464.09,398.00 C473.65,398.00 475.05,398.22 475.93,399.87 C476.48,400.90 476.61,402.05 476.21,402.44 C475.82,402.83 474.83,405.92 474.00,409.32 L 472.50 415.50 L 460.63 415.78 C449.80,416.04 448.82,415.92 449.41,414.37 ZM 375.10 383.25 C372.72,371.38 371.26,372.54 389.04,372.23 L 404.57 371.95 L 405.65 376.23 C406.24,378.58 406.81,382.64 406.91,385.25 L 407.09 390.00 L 391.77 390.00 L 376.46 390.00 L 375.10 383.25 ZM 415.52 387.75 C414.40,382.83 413.24,373.46 413.66,372.75 C413.91,372.34 421.77,372.00 431.12,372.00 L 448.12 372.00 L 447.47 376.75 C445.47,391.38 447.25,390.00 430.45,390.00 C416.32,390.00 416.03,389.96 415.52,387.75 ZM 454.66 382.25 C455.44,377.99 456.27,373.94 456.51,373.25 C456.82,372.35 460.12,372.00 468.39,372.00 C482.93,372.00 483.16,372.09 482.36,377.36 C482.01,379.63 481.32,382.02 480.83,382.64 C480.33,383.27 479.99,384.17 480.07,384.64 C480.15,385.12 479.89,386.51 479.49,387.75 C478.79,389.93 478.36,390.00 466.00,390.00 L 453.24 390.00 L 454.66 382.25 ZM 808.24 431.75 C806.40,429.45 806.03,426.52 807.27,424.06 C808.73,421.17 815.70,419.05 823.84,419.02 L 829.19 419.00 L 828.72 423.04 C828.46,425.26 828.08,427.24 827.88,427.42 C823.98,430.99 819.14,433.00 814.48,433.00 C811.49,433.00 808.82,432.46 808.24,431.75 Z" fill="rgb(254,254,254)"/>
</g>
</svg>